<svg width="82px" height="24px" viewBox="0 0 82 24" class="svg-nodejs is-logo">
	<g class="is-black">
		<path d="M13,12.517c0-0.252-0.133-0.484-0.35-0.609L6.85,8.57C6.752,8.513,6.642,8.483,6.531,8.478c-0.01,0-0.052,0-0.06,0C6.36,8.483,6.25,8.513,6.15,8.57l-5.8,3.338C0.134,12.033,0,12.265,0,12.517l0.013,8.988c0,0.125,0.065,0.241,0.175,0.303c0.108,0.064,0.241,0.064,0.348,0l3.447-1.974c0.218-0.129,0.351-0.358,0.351-0.608v-4.199c0-0.25,0.133-0.482,0.35-0.606l1.468-0.845c0.109-0.063,0.229-0.094,0.351-0.094c0.119,0,0.242,0.031,0.348,0.094l1.467,0.845c0.217,0.124,0.35,0.356,0.35,0.606v4.199c0,0.25,0.134,0.48,0.351,0.608l3.446,1.974c0.108,0.064,0.243,0.064,0.35,0c0.107-0.061,0.174-0.178,0.174-0.303L13,12.517z"/>
		<path d="M43.19,0.044c-0.109-0.06-0.241-0.059-0.348,0.004c-0.107,0.063-0.173,0.178-0.173,0.302v8.897c0,0.087-0.047,0.168-0.122,0.212c-0.076,0.044-0.169,0.044-0.245,0l-1.452-0.837c-0.217-0.125-0.483-0.125-0.7,0L34.35,11.97C34.133,12.095,34,12.326,34,12.576v6.695c0,0.25,0.133,0.481,0.35,0.607l5.799,3.349c0.217,0.125,0.484,0.125,0.701,0l5.8-3.349c0.217-0.125,0.35-0.356,0.35-0.607V2.582c0-0.254-0.137-0.488-0.359-0.612L43.19,0.044z M42.652,17.071c0,0.062-0.033,0.12-0.088,0.151l-1.991,1.148c-0.054,0.031-0.121,0.031-0.175,0l-1.991-1.148c-0.054-0.031-0.088-0.089-0.088-0.151v-2.299c0-0.062,0.033-0.12,0.087-0.152l1.991-1.15c0.054-0.031,0.121-0.031,0.175,0l1.991,1.15c0.054,0.031,0.087,0.089,0.087,0.152V17.071z"/>
		<path d="M63.65,14.852c0.216-0.126,0.35-0.357,0.35-0.607v-1.628c0-0.25-0.133-0.482-0.35-0.608l-5.78-3.356c-0.217-0.126-0.486-0.127-0.704-0.001l-5.815,3.357C51.134,12.135,51,12.367,51,12.618v6.714c0,0.253,0.135,0.485,0.355,0.61l5.779,3.293c0.213,0.122,0.474,0.123,0.689,0.004l3.495-1.943c0.111-0.062,0.18-0.178,0.181-0.305c0.001-0.127-0.067-0.244-0.176-0.307l-5.852-3.359c-0.109-0.063-0.176-0.179-0.176-0.305v-2.104c0-0.125,0.067-0.242,0.176-0.304l1.821-1.05c0.108-0.063,0.242-0.063,0.351,0l1.822,1.05c0.109,0.063,0.176,0.179,0.176,0.304v1.656c0,0.125,0.067,0.242,0.176,0.304c0.109,0.063,0.243,0.062,0.352-0.001L63.65,14.852z"/>
	</g>
	<g class="is-color1">
		<path d="M23.149,8.618c0.217-0.125,0.484-0.125,0.7,0l5.8,3.347C29.866,12.09,30,12.321,30,12.571v6.699c0,0.25-0.134,0.481-0.35,0.607l-5.8,3.35c-0.217,0.125-0.484,0.125-0.701,0l-5.799-3.35C17.134,19.752,17,19.521,17,19.271v-6.7c0-0.25,0.134-0.481,0.35-0.607L23.149,8.618z"/>
		<path d="M75.499,23.058c-0.196,0-0.392-0.051-0.563-0.151l-1.794-1.061c-0.268-0.15-0.137-0.203-0.049-0.234c0.357-0.124,0.43-0.153,0.811-0.369c0.04-0.022,0.092-0.014,0.133,0.01l1.378,0.818c0.05,0.028,0.12,0.028,0.166,0l5.372-3.101c0.05-0.029,0.082-0.086,0.082-0.145v-6.199c0-0.061-0.032-0.117-0.083-0.148l-5.37-3.098c-0.05-0.029-0.116-0.029-0.165,0l-5.368,3.099c-0.052,0.03-0.085,0.088-0.085,0.147v6.199c0,0.059,0.033,0.116,0.085,0.144l1.472,0.85c0.798,0.399,1.287-0.071,1.287-0.543v-6.121c0-0.087,0.07-0.155,0.156-0.155h0.681c0.085,0,0.156,0.068,0.156,0.155v6.121c0,1.066-0.58,1.677-1.591,1.677c-0.31,0-0.555,0-1.237-0.336l-1.409-0.811C69.215,19.605,69,19.229,69,18.826v-6.199c0-0.403,0.215-0.779,0.563-0.979l5.372-3.104c0.34-0.192,0.792-0.192,1.129,0l5.371,3.104C81.784,11.848,82,12.224,82,12.626v6.199c0,0.403-0.216,0.778-0.564,0.98l-5.371,3.101C75.893,23.007,75.698,23.058,75.499,23.058z"/>
		<path d="M77.158,18.787c-2.351,0-2.843-1.079-2.843-1.984c0-0.086,0.069-0.155,0.155-0.155h0.695c0.078,0,0.142,0.056,0.154,0.132c0.105,0.707,0.418,1.064,1.839,1.064c1.132,0,1.613-0.256,1.613-0.856c0-0.346-0.136-0.603-1.895-0.775c-1.47-0.145-2.379-0.47-2.379-1.646c0-1.084,0.914-1.73,2.445-1.73c1.721,0,2.572,0.597,2.68,1.879c0.004,0.044-0.012,0.087-0.041,0.12c-0.029,0.031-0.07,0.05-0.114,0.05h-0.697c-0.072,0-0.136-0.051-0.151-0.121c-0.167-0.744-0.574-0.982-1.678-0.982c-1.236,0-1.379,0.43-1.379,0.753c0,0.391,0.17,0.504,1.838,0.725c1.651,0.218,2.435,0.527,2.435,1.687C79.836,18.116,78.86,18.787,77.158,18.787z"/>
		<path d="M57.433,14.537c0.042-0.024,0.093-0.024,0.135,0l1.116,0.644c0.042,0.024,0.067,0.069,0.067,0.117v1.289c0,0.048-0.026,0.093-0.067,0.117l-1.116,0.644c-0.042,0.024-0.093,0.024-0.135,0l-1.115-0.644c-0.042-0.024-0.067-0.069-0.067-0.117v-1.289c0-0.048,0.026-0.093,0.067-0.117L57.433,14.537z"/>
	</g>
</svg>
