<svg width="80px" height="24px" viewBox="0 0 80 24" class="svg-nodejs">
	<g class="is-secondary">
		<path d="M12,12.9c0-0.2-0.1-0.4-0.3-0.6L6.3,9.3C6.2,9.2,6.1,9.2,6,9.2c0,0,0,0-0.1,0c-0.1,0-0.2,0-0.3,0.1l-5.4,3.1C0.1,12.5,0,12.7,0,12.9l0,8.3c0,0.1,0.1,0.2,0.2,0.3c0.1,0.1,0.2,0.1,0.3,0l3.2-1.8C3.9,19.6,4,19.4,4,19.1v-3.9c0-0.2,0.1-0.4,0.3-0.6l1.4-0.8c0.1-0.1,0.2-0.1,0.3-0.1c0.1,0,0.2,0,0.3,0.1l1.4,0.8C7.9,14.8,8,15,8,15.3v3.9c0,0.2,0.1,0.4,0.3,0.6l3.2,1.8c0.1,0.1,0.2,0.1,0.3,0c0.1-0.1,0.2-0.2,0.2-0.3L12,12.9z"/>
		<path d="M40.5,1.6c-0.1-0.1-0.2-0.1-0.3,0C40.1,1.6,40,1.7,40,1.8v8.2c0,0.1,0,0.2-0.1,0.2c-0.1,0-0.2,0-0.2,0l-1.3-0.8c-0.2-0.1-0.4-0.1-0.6,0l-5.4,3.1c-0.2,0.1-0.3,0.3-0.3,0.6v6.2c0,0.2,0.1,0.4,0.3,0.6l5.4,3.1c0.2,0.1,0.4,0.1,0.6,0l5.4-3.1c0.2-0.1,0.3-0.3,0.3-0.6V3.9c0-0.2-0.1-0.5-0.3-0.6L40.5,1.6z M40,17.3c0,0.1,0,0.1-0.1,0.1l-1.8,1.1c0,0-0.1,0-0.2,0l-1.8-1.1c-0.1,0-0.1-0.1-0.1-0.1v-2.1c0-0.1,0-0.1,0.1-0.1l1.8-1.1c0.1,0,0.1,0,0.2,0l1.8,1.1c0,0,0.1,0.1,0.1,0.1V17.3z"/>
		<path d="M59.7,15.1c0.2-0.1,0.3-0.3,0.3-0.6V13c0-0.2-0.1-0.4-0.3-0.6l-5.3-3.1c-0.2-0.1-0.4-0.1-0.6,0l-5.4,3.1C48.1,12.6,48,12.8,48,13v6.2c0,0.2,0.1,0.4,0.3,0.6l5.3,3c0.2,0.1,0.4,0.1,0.6,0l3.2-1.8c0.1-0.1,0.2-0.2,0.2-0.3c0-0.1-0.1-0.2-0.2-0.3l-5.4-3.1C52,17.3,52,17.2,52,17.1v-1.9c0-0.1,0.1-0.2,0.2-0.3l1.7-1c0.1-0.1,0.2-0.1,0.3,0l1.7,1c0.1,0.1,0.2,0.2,0.2,0.3v1.5c0,0.1,0.1,0.2,0.2,0.3c0.1,0.1,0.2,0.1,0.3,0L59.7,15.1z"/>
	</g>
	<g class="is-main">
		<path d="M21.7,9.3c0.2-0.1,0.4-0.1,0.6,0l5.4,3.1c0.2,0.1,0.3,0.3,0.3,0.6v6.2c0,0.2-0.1,0.4-0.3,0.6l-5.4,3.1c-0.2,0.1-0.4,0.1-0.6,0l-5.4-3.1c-0.2-0.1-0.3-0.3-0.3-0.6V13c0-0.2,0.1-0.4,0.3-0.6L21.7,9.3z"/>
		<path d="M70,22.7c-0.2,0-0.4,0-0.5-0.1l-1.7-1c-0.2-0.1-0.1-0.2,0-0.2c0.3-0.1,0.4-0.1,0.7-0.3c0,0,0.1,0,0.1,0l1.3,0.8c0,0,0.1,0,0.2,0l5-2.9c0,0,0.1-0.1,0.1-0.1V13c0-0.1,0-0.1-0.1-0.1l-5-2.9c0,0-0.1,0-0.2,0l-5,2.9c0,0-0.1,0.1-0.1,0.1v5.7c0,0.1,0,0.1,0.1,0.1l1.4,0.8c0.7,0.4,1.2-0.1,1.2-0.5v-5.7c0-0.1,0.1-0.1,0.1-0.1h0.6c0.1,0,0.1,0.1,0.1,0.1v5.7c0,1-0.5,1.5-1.5,1.5c-0.3,0-0.5,0-1.1-0.3l-1.3-0.7c-0.3-0.2-0.5-0.5-0.5-0.9V13c0-0.4,0.2-0.7,0.5-0.9l5-2.9c0.3-0.2,0.7-0.2,1,0l5,2.9c0.3,0.2,0.5,0.5,0.5,0.9v5.7c0,0.4-0.2,0.7-0.5,0.9l-5,2.9C70.4,22.6,70.2,22.7,70,22.7z"/>
		<path d="M71.6,18.7c-2.1,0-2.6-1-2.6-1.8c0-0.1,0.1-0.1,0.1-0.1h0.6c0.1,0,0.1,0.1,0.1,0.1c0.1,0.6,0.4,1,1.7,1c1,0,1.5-0.2,1.5-0.8c0-0.3-0.1-0.5-1.7-0.7c-1.3-0.1-2.2-0.4-2.2-1.5c0-1,0.8-1.6,2.2-1.6c1.6,0,2.3,0.5,2.4,1.7c0,0,0,0.1,0,0.1c0,0-0.1,0-0.1,0H73c-0.1,0-0.1,0-0.1-0.1c-0.2-0.7-0.5-0.9-1.5-0.9c-1.1,0-1.2,0.4-1.2,0.7c0,0.4,0.2,0.5,1.7,0.7C73.3,15.7,74,16,74,17C74,18.1,73.1,18.7,71.6,18.7z"/>
		<polygon points="78.5,9.3 78.5,9.4 78,9.4 78,10.5 77.9,10.5 77.9,9.4 77.4,9.4 77.4,9.3 "/>
		<path d="M78.6,9.3h0.2l0.4,1.1l0.4-1.1h0.2v1.3h-0.2V9.8c0,0,0-0.1,0-0.1c0-0.1,0-0.1,0-0.2l-0.4,1.1h-0.2l-0.4-1.1v0c0,0,0,0.1,0,0.1c0,0.1,0,0.1,0,0.1v0.7h-0.2V9.3z"/>
		<path d="M53.9,14.8c0,0,0.1,0,0.1,0l1,0.6c0,0,0.1,0.1,0.1,0.1v1.2c0,0,0,0.1-0.1,0.1l-1,0.6c0,0-0.1,0-0.1,0l-1-0.6c0,0-0.1-0.1-0.1-0.1v-1.2c0,0,0-0.1,0.1-0.1L53.9,14.8z"/>
	</g>
</svg>
