<svg width="24px" height="24px" viewBox="0 0 24 24" class="svg-nodejs is-square">
	<g class="is-color1">
		<path d="M11.977,24c-0.321,0-0.641-0.084-0.922-0.247l-2.937-1.737c-0.438-0.245-0.224-0.332-0.08-0.383c0.585-0.203,0.703-0.25,1.328-0.604c0.065-0.036,0.151-0.023,0.218,0.017l2.256,1.339c0.082,0.045,0.197,0.045,0.272,0l8.795-5.076c0.082-0.047,0.134-0.141,0.134-0.238V6.921c0-0.099-0.053-0.192-0.137-0.243l-8.791-5.072c-0.081-0.047-0.189-0.047-0.271,0L3.054,6.68C2.969,6.729,2.914,6.825,2.914,6.921v10.15c0,0.097,0.054,0.189,0.139,0.235l2.409,1.392c1.307,0.654,2.108-0.116,2.108-0.889V7.787c0-0.142,0.114-0.253,0.256-0.253h1.115c0.139,0,0.255,0.112,0.255,0.253v10.021c0,1.745-0.95,2.745-2.604,2.745c-0.508,0-0.908,0-2.026-0.551l-2.306-1.328c-0.57-0.329-0.922-0.945-0.922-1.604V6.921c0-0.66,0.353-1.275,0.922-1.603l8.795-5.082c0.556-0.315,1.296-0.315,1.848,0l8.794,5.082c0.57,0.329,0.924,0.944,0.924,1.603v10.15c0,0.66-0.354,1.273-0.924,1.604l-8.794,5.078C12.622,23.916,12.302,24,11.977,24z"/>
		<path d="M14.693,17.007c-3.849,0-4.655-1.767-4.655-3.248c0-0.141,0.113-0.253,0.254-0.253h1.137c0.127,0,0.233,0.091,0.253,0.215c0.172,1.158,0.684,1.742,3.011,1.742c1.853,0,2.641-0.419,2.641-1.402c0-0.567-0.223-0.987-3.103-1.269c-2.406-0.238-3.895-0.77-3.895-2.695c0-1.775,1.496-2.833,4.003-2.833c2.818,0,4.212,0.978,4.388,3.076c0.007,0.072-0.019,0.142-0.067,0.196c-0.048,0.05-0.115,0.081-0.186,0.081h-1.141c-0.118,0-0.223-0.084-0.247-0.199C16.813,9.2,16.147,8.81,14.341,8.81c-2.023,0-2.258,0.705-2.258,1.233c0,0.64,0.278,0.826,3.009,1.187c2.703,0.357,3.987,0.863,3.987,2.763C19.078,15.91,17.48,17.007,14.693,17.007z"/>
	</g>
</svg>
