<svg width="24" height="24" viewBox="0 0 24 24" class="svg-dag"><g class="is-black"><path d="M14.263 16.99l-.69-1.774H9.762l-.677 1.774H7.495l2.928-7.45-1.944-.246v-1.17h6.483v1.17l-1.927.244 2.953 7.45h-1.727zM10.3 13.802h2.736l-1.356-3.81h-.025l-1.356 3.81zM7.5 12.557c0 2.82-1.984 4.433-4.448 4.433H0V8.124h3.052c2.464 0 4.45 1.613 4.45 4.433zm-5.896-3.02v6.038h1.448c1.538 0 2.845-.94 2.845-3.02 0-1.97-1.29-3.018-2.845-3.018H1.604zM19.94 12.19H24v3.15c-.777 1.108-2.068 1.774-3.63 1.774-2.664 0-4.558-1.76-4.558-4.557C15.812 9.762 17.657 8 20.286 8c1.646 0 3.052.814 3.714 2.254l-1.464.604c-.397-.876-1.19-1.443-2.25-1.443-1.877 0-2.87 1.356-2.87 3.143 0 1.786 1.042 3.14 2.953 3.14.834 0 1.578-.282 2.033-.762v-1.33H19.94v-1.417z"/></g></svg>