<svg width="24" height="24" viewBox="0 0 24 24" class="svg-twitter is-square"><path class="is-color1" d="M24 5.006c-.883.392-1.832.656-2.828.775 1.017-.608 1.797-1.573 2.165-2.723-.95.564-2.005.974-3.127 1.195-.898-.957-2.178-1.555-3.594-1.555-2.72 0-4.924 2.205-4.924 4.924 0 .387.044.763.127 1.123C7.726 8.538 4.1 6.577 1.67 3.598c-.423.728-.666 1.573-.666 2.476 0 1.708.87 3.215 2.19 4.098-.807-.026-1.566-.247-2.23-.616v.062c0 2.386 1.697 4.376 3.95 4.828-.413.112-.848.173-1.297.173-.317 0-.626-.032-.926-.09.628 1.957 2.446 3.38 4.6 3.42-1.684 1.322-3.807 2.11-6.114 2.11-.397 0-.79-.024-1.175-.07 2.18 1.397 4.768 2.212 7.55 2.212 9.056 0 14.008-7.503 14.008-14.01 0-.213-.005-.426-.014-.637.96-.694 1.796-1.562 2.456-2.55z"/></svg>