<svg width="120px" height="120px" viewBox="0 0 120 120" class="svg-github is-square is-large">
	<g class="is-black">
		<path d="M60,0C26.867,0,0,26.862,0,60c0,26.509,17.192,49,41.032,56.934c2.998,0.555,4.1-1.302,4.1-2.887c0-1.43-0.055-6.157-0.081-11.171c-16.692,3.63-20.214-7.079-20.214-7.079c-2.729-6.935-6.662-8.779-6.662-8.779c-5.444-3.724,0.41-3.647,0.41-3.647c6.025,0.423,9.197,6.184,9.197,6.184c5.351,9.172,14.036,6.52,17.46,4.987c0.539-3.877,2.093-6.525,3.809-8.023c-13.327-1.517-27.337-6.662-27.337-29.652c0-6.55,2.344-11.903,6.183-16.105c-0.623-1.512-2.677-7.614,0.581-15.879c0,0,5.039-1.612,16.504,6.151c4.786-1.33,9.919-1.996,15.018-2.02c5.099,0.023,10.236,0.69,15.031,2.02c11.452-7.763,16.483-6.151,16.483-6.151c3.266,8.265,1.212,14.367,0.589,15.879c3.847,4.202,6.175,9.554,6.175,16.105c0,23.045-14.036,28.119-27.397,29.605c2.152,1.862,4.069,5.513,4.069,11.111c0,8.028-0.069,14.489-0.069,16.466c0,1.597,1.08,3.468,4.121,2.879C102.83,108.983,120,86.501,120,60C120,26.862,93.136,0,60,0z"/>
		<path d="M22.725,86.147c-0.132,0.299-0.602,0.388-1.028,0.183c-0.436-0.196-0.679-0.603-0.539-0.901c0.129-0.307,0.599-0.392,1.033-0.187C22.627,85.437,22.876,85.848,22.725,86.147L22.725,86.147z M21.987,85.599"/>
		<path d="M25.156,88.858c-0.286,0.265-0.846,0.142-1.225-0.278c-0.393-0.418-0.466-0.978-0.176-1.247c0.295-0.265,0.837-0.141,1.23,0.278C25.378,88.034,25.455,88.589,25.156,88.858L25.156,88.858z M24.583,88.243"/>
		<path d="M27.521,92.313c-0.368,0.256-0.969,0.016-1.341-0.517c-0.368-0.534-0.368-1.174,0.009-1.43c0.372-0.256,0.964-0.025,1.341,0.504C27.897,91.411,27.897,92.052,27.521,92.313L27.521,92.313z M27.521,92.313"/>
		<path d="M30.762,95.652c-0.329,0.363-1.03,0.265-1.542-0.23c-0.525-0.483-0.67-1.17-0.341-1.533c0.334-0.363,1.038-0.261,1.554,0.23C30.954,94.602,31.112,95.292,30.762,95.652L30.762,95.652z M30.762,95.652"/>
		<path d="M35.233,97.59c-0.146,0.47-0.82,0.683-1.499,0.483c-0.679-0.206-1.123-0.756-0.986-1.23c0.141-0.474,0.819-0.696,1.503-0.482C34.93,96.566,35.374,97.112,35.233,97.59L35.233,97.59z M35.233,97.59"/>
		<path d="M40.144,97.949c0.016,0.495-0.56,0.905-1.273,0.914c-0.717,0.016-1.298-0.384-1.306-0.871c0-0.5,0.564-0.905,1.281-0.918C39.559,97.06,40.144,97.458,40.144,97.949L40.144,97.949z M40.144,97.949"/>
		<path d="M44.713,97.172c0.085,0.482-0.41,0.978-1.119,1.11c-0.697,0.128-1.341-0.171-1.43-0.649c-0.086-0.495,0.418-0.991,1.114-1.119C43.987,96.391,44.623,96.681,44.713,97.172L44.713,97.172z M44.713,97.172"/>
	</g>
</svg>
