<svg width="24" height="24" viewBox="0 0 24 24" class="svg-aboutme"><rect width="24" height="24" class="is-color1" ry="x" rx="2"/><g class="is-white"><path d="M11.34 14.607v-3.502c0-.6-.265-.945-.822-.945-.5 0-.834.356-1.057.612v3.835H8.017v-3.502c0-.6-.256-.945-.812-.945-.5 0-.846.356-1.057.612v3.835H4.7v-5.59h1.447v.71c.245-.29.8-.78 1.668-.78.768 0 1.29.324 1.524.98.32-.467.92-.98 1.79-.98 1.045 0 1.657.624 1.657 1.825v3.835H11.34zM15.334 12.25c.145.713.734 1.213 1.557 1.213.446 0 1.09-.166 1.47-.556l.722.835c-.655.69-1.635.878-2.302.878-1.624 0-2.892-1.167-2.892-2.836 0-1.557 1.167-2.836 2.814-2.836 1.59 0 2.77 1.223 2.77 2.836v.467h-4.138zm1.39-2.224c-.845 0-1.312.623-1.41 1.302h2.834c-.077-.645-.533-1.302-1.423-1.302z"/></g></svg>