<svg width="95" height="24" viewBox="0 0 95 24" class="svg-linkedin is-logo"><g class="is-black"><path d="M0 3.55h3.7v13.484h6.856v3.417H0M12.19 8.992h3.56v11.453h-3.56V8.992zM13.97 3.3c1.14 0 2.065.924 2.065 2.063 0 1.14-.925 2.062-2.064 2.062-1.137 0-2.062-.922-2.062-2.062 0-1.14.924-2.064 2.063-2.064M30.625 3.55h3.555v10.1l4.03-4.663h4.362l-4.666 5.303 4.568 6.16h-4.47l-3.777-5.662h-.047v5.663h-3.555M17.718 8.995h3.416v1.564h.048c.474-.9 1.636-1.85 3.368-1.85 3.606 0 4.27 2.37 4.27 5.455v6.28h-3.558v-5.568c0-1.328-.024-3.035-1.85-3.035-1.85 0-2.135 1.446-2.135 2.94v5.663H17.72V8.995z"/><path d="M50.06 13.388c.023-1.187-.9-2.183-2.183-2.183-1.564 0-2.418 1.068-2.513 2.183h4.697zm3.014 5.074c-1.14 1.448-3.013 2.28-4.863 2.28-3.557 0-6.404-2.373-6.404-6.05 0-3.676 2.847-6.05 6.405-6.05 3.323 0 5.41 2.374 5.41 6.05v1.114h-8.255c.283 1.353 1.305 2.23 2.68 2.23 1.164 0 1.945-.592 2.538-1.4l2.49 1.826zM61.03 11.762c-1.777 0-2.846 1.187-2.846 2.917 0 1.732 1.07 2.918 2.847 2.918 1.782 0 2.848-1.186 2.848-2.92 0-1.73-1.066-2.916-2.847-2.916m6.124 8.682H63.88v-1.52h-.047c-.548.83-1.922 1.803-3.535 1.803-3.417 0-5.67-2.466-5.67-5.952 0-3.204 1.992-6.144 5.266-6.144 1.472 0 2.846.403 3.654 1.518h.046v-6.6h3.56v16.896z"/></g><rect x="71" width="24" height="24" class="is-color1" ry="x" rx="2"/><g class="is-white"><path d="M74.557 8.997h3.563V20.45h-3.563zM76.34 3.304c1.138 0 2.062.925 2.062 2.064 0 1.14-.924 2.064-2.063 2.064-1.144 0-2.066-.925-2.066-2.064 0-1.14.92-2.064 2.065-2.064M80.352 8.997h3.412v1.566h.05c.474-.9 1.636-1.85 3.367-1.85 3.605 0 4.27 2.37 4.27 5.456v6.28h-3.558v-5.57c0-1.328-.023-3.037-1.85-3.037-1.852 0-2.135 1.448-2.135 2.942v5.665h-3.555V8.997z"/></g></svg>