<svg width="24" height="24" viewBox="0 0 24 24" class="svg-linkedin is-square"><rect width="24" height="24" class="is-color1" ry="x" rx="2"/><g class="is-white"><path d="M3.556 8.998H7.12V20.45H3.555zM5.34 3.304c1.138 0 2.062.925 2.062 2.064 0 1.14-.924 2.064-2.063 2.064-1.144 0-2.066-.925-2.066-2.064 0-1.14.92-2.064 2.065-2.064M9.352 8.998h3.412v1.566h.05c.474-.9 1.635-1.85 3.367-1.85 3.605 0 4.27 2.372 4.27 5.456v6.28h-3.558v-5.57c0-1.327-.023-3.036-1.85-3.036-1.852 0-2.135 1.448-2.135 2.942v5.665H9.352V9z"/></g></svg>