<svg width="82px" height="24px" viewBox="0 0 82 24" class="svg-behance is-logo">
	<g class="is-color1">
		<path d="M6.765,5c0.687,0,1.307,0.059,1.873,0.182C9.201,5.301,9.682,5.5,10.087,5.774c0.4,0.274,0.712,0.637,0.938,1.095c0.218,0.451,0.327,1.016,0.327,1.684c0,0.723-0.163,1.326-0.491,1.809c-0.33,0.482-0.816,0.876-1.464,1.182c0.883,0.254,1.537,0.702,1.971,1.337c0.435,0.639,0.649,1.406,0.649,2.304c0,0.727-0.14,1.354-0.419,1.88c-0.28,0.534-0.662,0.966-1.134,1.3c-0.476,0.336-1.022,0.584-1.633,0.744c-0.605,0.16-1.232,0.242-1.875,0.242H0V5H6.765z M6.357,10.798c0.559,0,1.023-0.133,1.39-0.402C8.111,10.13,8.288,9.691,8.288,9.09c0-0.334-0.06-0.61-0.177-0.825C7.989,8.052,7.828,7.885,7.626,7.767C7.423,7.644,7.194,7.56,6.929,7.515C6.668,7.464,6.396,7.445,6.116,7.445H3.161v3.353H6.357z M6.534,16.906c0.309,0,0.606-0.028,0.884-0.09c0.284-0.061,0.533-0.16,0.745-0.304c0.21-0.139,0.387-0.33,0.514-0.572c0.128-0.24,0.189-0.553,0.189-0.93c0-0.739-0.208-1.265-0.622-1.583c-0.415-0.315-0.967-0.471-1.647-0.471H3.161v3.951H6.534z"/>
		<path d="M17.07,16.858c0.429,0.417,1.046,0.627,1.847,0.627c0.574,0,1.071-0.146,1.489-0.436c0.414-0.29,0.665-0.6,0.763-0.921h2.514c-0.406,1.251-1.018,2.143-1.855,2.681c-0.825,0.54-1.834,0.808-3.008,0.808c-0.818,0-1.555-0.132-2.216-0.393c-0.66-0.264-1.214-0.635-1.677-1.117c-0.452-0.485-0.804-1.058-1.056-1.732c-0.248-0.669-0.373-1.411-0.373-2.214c0-0.777,0.13-1.503,0.385-2.174c0.259-0.673,0.618-1.254,1.086-1.741c0.475-0.49,1.032-0.876,1.685-1.159c0.652-0.281,1.37-0.423,2.167-0.423c0.878,0,1.649,0.17,2.309,0.515c0.658,0.34,1.197,0.8,1.621,1.376c0.423,0.576,0.725,1.234,0.912,1.972c0.188,0.736,0.254,1.506,0.199,2.313h-7.497C16.365,15.663,16.642,16.44,17.07,16.858z M20.35,11.399c-0.339-0.375-0.913-0.578-1.614-0.578c-0.456,0-0.833,0.076-1.135,0.233c-0.296,0.154-0.537,0.346-0.724,0.572c-0.184,0.23-0.309,0.473-0.384,0.732c-0.072,0.253-0.117,0.482-0.128,0.685h4.643C20.939,12.315,20.691,11.777,20.35,11.399z"/>
		<path d="M28.526,5v5.411h0.065c0.364-0.602,0.822-1.04,1.384-1.311c0.562-0.273,1.111-0.408,1.645-0.408c0.762,0,1.386,0.1,1.875,0.307c0.487,0.211,0.874,0.495,1.156,0.865c0.278,0.367,0.474,0.817,0.589,1.348c0.113,0.528,0.171,1.111,0.171,1.755v6.385h-2.867v-5.867c0-0.856-0.135-1.499-0.4-1.92c-0.266-0.421-0.739-0.632-1.422-0.632c-0.772,0-1.329,0.234-1.675,0.695c-0.352,0.462-0.522,1.222-0.522,2.279v5.445h-2.867V5H28.526z"/>
		<path d="M37.973,10.479c0.29-0.442,0.664-0.8,1.121-1.067c0.456-0.27,0.964-0.461,1.537-0.574c0.569-0.117,1.139-0.173,1.718-0.173c0.52,0,1.046,0.037,1.589,0.111c0.533,0.074,1.022,0.218,1.464,0.433c0.442,0.216,0.802,0.512,1.081,0.899c0.282,0.376,0.426,0.886,0.426,1.518v5.415c0,0.471,0.028,0.918,0.078,1.347c0.058,0.432,0.203,0.756,0.342,0.968l-2.916-0.007c-0.086-0.125-0.157-0.319-0.189-0.488c-0.034-0.166-0.058-0.336-0.071-0.512c-0.453,0.47-0.987,0.8-1.606,0.989c-0.616,0.186-1.243,0.279-1.888,0.279c-0.494,0-0.953-0.062-1.383-0.183c-0.425-0.121-0.801-0.308-1.12-0.562c-0.322-0.258-0.57-0.578-0.752-0.967c-0.181-0.39-0.273-0.854-0.273-1.39c0-0.592,0.106-1.079,0.316-1.46c0.206-0.381,0.471-0.688,0.802-0.915c0.327-0.229,0.702-0.401,1.126-0.514c0.421-0.113,0.847-0.206,1.271-0.272c0.43-0.066,0.848-0.12,1.267-0.161c0.419-0.041,0.783-0.1,1.105-0.181c0.32-0.08,0.577-0.2,0.765-0.352c0.185-0.155,0.273-0.378,0.26-0.676c0-0.307-0.054-0.552-0.154-0.735c-0.099-0.18-0.234-0.32-0.395-0.421c-0.17-0.101-0.359-0.167-0.579-0.203c-0.221-0.032-0.457-0.05-0.709-0.05c-0.557,0-1,0.124-1.313,0.363c-0.323,0.246-0.508,0.65-0.565,1.215h-2.864C37.509,11.478,37.674,10.922,37.973,10.479z M43.591,14.523c-0.177,0.059-0.376,0.109-0.578,0.152c-0.209,0.04-0.427,0.072-0.653,0.1c-0.226,0.027-0.456,0.058-0.679,0.098c-0.215,0.043-0.43,0.095-0.631,0.163c-0.207,0.067-0.389,0.156-0.537,0.27c-0.155,0.115-0.279,0.259-0.373,0.432c-0.091,0.173-0.14,0.398-0.14,0.664c0,0.253,0.049,0.468,0.14,0.644c0.094,0.175,0.219,0.311,0.38,0.411c0.162,0.101,0.351,0.172,0.561,0.211c0.214,0.043,0.435,0.058,0.661,0.058c0.562,0,0.993-0.093,1.302-0.279c0.306-0.188,0.536-0.413,0.681-0.674c0.147-0.262,0.236-0.525,0.266-0.791c0.037-0.268,0.054-0.484,0.054-0.646v-1.067C43.921,14.379,43.774,14.463,43.591,14.523z"/>
		<path d="M51.627,8.962v1.448h0.064c0.361-0.602,0.827-1.04,1.405-1.311c0.574-0.273,1.169-0.408,1.771-0.408c0.766,0,1.395,0.1,1.88,0.307c0.494,0.211,0.878,0.495,1.156,0.865c0.286,0.367,0.482,0.817,0.596,1.348c0.118,0.528,0.174,1.111,0.174,1.755v6.385h-2.87v-5.867c0-0.856-0.134-1.499-0.401-1.92c-0.271-0.421-0.739-0.691-1.427-0.691c-0.776,0-1.342,0.293-1.689,0.753c-0.35,0.462-0.523,1.222-0.523,2.279v5.445h-2.838V8.962H51.627z"/>
		<path d="M65.375,10.821c-0.458,0-0.838,0.101-1.141,0.312c-0.312,0.21-0.567,0.476-0.761,0.805c-0.194,0.327-0.328,0.69-0.412,1.086c-0.079,0.396-0.121,0.788-0.121,1.179c0,0.376,0.041,0.759,0.121,1.149c0.084,0.389,0.211,0.738,0.391,1.057c0.185,0.313,0.428,0.571,0.737,0.773c0.307,0.203,0.68,0.303,1.123,0.303c0.687,0,1.212-0.192,1.581-0.573c0.368-0.381,0.596-0.894,0.691-1.537h2.758c-0.191,1.379-0.728,2.43-1.608,3.157c-0.887,0.721-2.021,1.086-3.401,1.086c-0.78,0-1.489-0.132-2.144-0.393c-0.651-0.264-1.207-0.628-1.663-1.097c-0.456-0.471-0.81-1.031-1.07-1.681c-0.253-0.651-0.381-1.366-0.381-2.143c0-0.804,0.119-1.554,0.353-2.246c0.235-0.69,0.579-1.287,1.039-1.789c0.456-0.505,1.013-0.897,1.674-1.179c0.658-0.281,1.407-0.423,2.251-0.423c0.616,0,1.209,0.084,1.78,0.24c0.57,0.159,1.08,0.405,1.529,0.735c0.448,0.327,0.814,0.735,1.098,1.221c0.278,0.487,0.437,1.07,0.481,1.736h-2.798C67.298,11.412,66.594,10.821,65.375,10.821z"/>
		<rect x="15.781" y="5.814" width="5.815" height="1.416"/>
		<path d="M75.158,16.858c0.427,0.417,1.074,0.627,1.88,0.627c0.576,0,1.072-0.146,1.487-0.436c0.415-0.29,0.671-0.6,0.763-0.921h2.513c-0.401,1.251-1.02,2.143-1.849,2.681c-0.83,0.54-1.833,0.808-3.013,0.808c-0.82,0-1.56-0.132-2.216-0.393c-0.66-0.264-1.212-0.635-1.676-1.117c-0.458-0.485-0.808-1.058-1.057-1.732c-0.248-0.669-0.371-1.411-0.371-2.214c0-0.777,0.126-1.503,0.381-2.174c0.257-0.673,0.622-1.254,1.09-1.741c0.476-0.49,1.03-0.876,1.679-1.159c0.653-0.281,1.378-0.423,2.169-0.423c0.879,0,1.652,0.17,2.304,0.515c0.661,0.34,1.203,0.8,1.623,1.376c0.423,0.576,0.727,1.234,0.914,1.972c0.185,0.736,0.255,1.506,0.202,2.313h-7.53C74.453,15.663,74.727,16.44,75.158,16.858z M78.472,11.399c-0.344-0.375-0.923-0.578-1.615-0.578c-0.455,0-0.835,0.076-1.141,0.233c-0.296,0.154-0.566,0.346-0.748,0.572c-0.181,0.23-0.31,0.473-0.387,0.732c-0.068,0.253-0.115,0.482-0.127,0.685h4.679C79.055,12.315,78.811,11.777,78.472,11.399z"/>
	</g>
</svg>
