<svg width="24px" height="24px" viewBox="0 0 24 24" class="svg-behance is-square">
	<g class="is-color1">
		<path d="M6.765,5c0.687,0,1.307,0.059,1.873,0.182C9.201,5.301,9.682,5.5,10.087,5.774c0.4,0.274,0.712,0.637,0.938,1.095c0.218,0.451,0.327,1.016,0.327,1.684c0,0.723-0.163,1.326-0.491,1.809c-0.33,0.482-0.816,0.876-1.464,1.182c0.883,0.254,1.537,0.702,1.971,1.337c0.435,0.639,0.649,1.406,0.649,2.304c0,0.727-0.14,1.354-0.419,1.88c-0.28,0.534-0.662,0.966-1.134,1.3c-0.476,0.336-1.022,0.584-1.633,0.744c-0.605,0.16-1.232,0.242-1.875,0.242H0V5H6.765z M6.357,10.798c0.559,0,1.023-0.133,1.39-0.402C8.111,10.13,8.288,9.691,8.288,9.09c0-0.334-0.06-0.61-0.177-0.825C7.989,8.052,7.828,7.885,7.626,7.767C7.423,7.644,7.194,7.56,6.929,7.515C6.668,7.464,6.396,7.445,6.116,7.445H3.161v3.353H6.357z M6.534,16.906c0.309,0,0.606-0.028,0.884-0.09c0.284-0.061,0.533-0.16,0.745-0.304c0.21-0.139,0.387-0.33,0.514-0.572c0.128-0.24,0.189-0.553,0.189-0.93c0-0.739-0.208-1.265-0.622-1.583c-0.415-0.315-0.967-0.471-1.647-0.471H3.161v3.951H6.534z"/>
		<path d="M17.07,16.858c0.429,0.417,1.046,0.627,1.847,0.627c0.574,0,1.071-0.146,1.489-0.436c0.414-0.29,0.665-0.6,0.763-0.921h2.514c-0.406,1.251-1.018,2.143-1.855,2.681c-0.825,0.54-1.834,0.808-3.008,0.808c-0.818,0-1.555-0.132-2.216-0.393c-0.66-0.264-1.214-0.635-1.677-1.117c-0.452-0.485-0.804-1.058-1.056-1.732c-0.248-0.669-0.373-1.411-0.373-2.214c0-0.777,0.13-1.503,0.385-2.174c0.259-0.673,0.618-1.254,1.086-1.741c0.475-0.49,1.032-0.876,1.685-1.159c0.652-0.281,1.37-0.423,2.167-0.423c0.878,0,1.649,0.17,2.309,0.515c0.658,0.34,1.197,0.8,1.621,1.376c0.423,0.576,0.725,1.234,0.912,1.972c0.188,0.736,0.254,1.506,0.199,2.313h-7.497C16.365,15.663,16.642,16.44,17.07,16.858z M20.35,11.399c-0.339-0.375-0.913-0.578-1.614-0.578c-0.456,0-0.833,0.076-1.135,0.233c-0.296,0.154-0.537,0.346-0.724,0.572c-0.184,0.23-0.309,0.473-0.384,0.732c-0.072,0.253-0.117,0.482-0.128,0.685h4.643C20.939,12.315,20.691,11.777,20.35,11.399z"/>
		<rect x="15.781" y="5.814" width="5.815" height="1.416"/>
	</g>
</svg>