<svg width="75px" height="24px" viewBox="0 0 75 24" class="svg-eventbrite">
	<path class="is-color1" d="M2.697,24C1.186,24,0,22.471,0,20.521V3.48C0,1.528,1.184,0,2.697,0l0.09,0.002l69.405,2.964C73.741,3.028,75,4.284,75,5.763v12.475c0,1.478-1.259,2.732-2.808,2.796L2.785,23.998L2.697,24z"/>

	<g class="is-white">
		<path d="M4.373,15.347l1.598-7.593c0.156-0.737,0.61-1.077,1.305-1.077h5.062c0.581,0,0.893,0.227,0.893,0.623c0,0.227-0.127,0.737-0.355,0.964c-0.156,0.17-0.34,0.227-0.808,0.227H7.914l-0.487,2.237h3.105c0.538,0,0.822,0.227,0.822,0.581c0,0.213-0.099,0.681-0.312,0.908c-0.142,0.142-0.326,0.227-0.751,0.227H7.057l-0.501,2.422h4.14c0.582,0,0.879,0.227,0.879,0.61c0,0.241-0.113,0.737-0.34,0.978c-0.156,0.156-0.355,0.227-0.809,0.227H5.422C4.557,16.68,4.175,16.24,4.373,15.347z"/>
		<path d="M13.921,16.014l-0.567-3.942c-0.142-1.078-0.468-1.362-1.036-1.404c-0.028,0,0.1-1.021,1.248-1.021c0.425,0,0.723,0.114,0.993,0.383c0.383,0.383,0.553,1.007,0.624,1.956l0.255,2.58l2.807-4.906c0.014-0.028,1.376,0.043,1.376,0.979c0,0.312-0.114,0.553-0.426,1.021l-2.92,4.495c-0.326,0.511-0.865,0.596-1.248,0.596C14.517,16.752,13.992,16.567,13.921,16.014z"/>
		<path d="M19.678,13.901c0-2.509,1.928-4.31,4.353-4.31c1.757,0,2.736,0.822,2.736,2.027c0,1.418-0.907,2.269-3.984,2.269c-0.426,0-0.893-0.028-1.418-0.058v0.043c0,0.964,0.596,1.56,1.687,1.56c0.922,0,1.589-0.412,2.042-1.007c0.028-0.042,0.851,0.1,0.851,0.752c0,0.368-0.113,0.567-0.383,0.85c-0.525,0.511-1.347,0.822-2.538,0.822C20.755,16.85,19.678,15.603,19.678,13.901z M21.621,12.612c0.369,0.028,0.694,0.042,0.992,0.042c1.928,0,2.467-0.439,2.467-0.978c0-0.368-0.383-0.737-1.134-0.737C22.896,10.938,22.032,11.661,21.621,12.612z"/>
		<path d="M29.972,10.938c0.553-0.836,1.361-1.347,2.381-1.347c1.418,0,2.24,0.922,2.24,2.24c0,0.496-0.17,1.176-0.412,2.028c-0.183,0.694-0.326,1.247-0.326,1.53c0,0.397,0.184,0.553,0.567,0.61c0.029,0-0.113,0.822-1.205,0.822c-0.935,0-1.375-0.481-1.375-1.233c0-0.397,0.127-0.922,0.34-1.701c0.185-0.652,0.312-1.192,0.312-1.489c0-0.709-0.397-1.134-1.12-1.134c-0.695,0-1.148,0.326-1.588,1.006l-0.738,3.516c-0.156,0.709-0.411,0.951-0.921,0.951h-0.212c-0.54,0-1.021-0.213-0.865-0.951l1.261-5.954c0.014-0.043,0.241-0.127,0.553-0.127C29.433,9.705,29.986,10.017,29.972,10.938z"/>
		<path d="M36.097,14.242l0.609-2.92h-0.34c-0.455,0-0.724-0.199-0.724-0.525c0-0.199,0.085-0.624,0.284-0.837c0.142-0.127,0.297-0.198,0.695-0.198h0.41l0.085-0.397c0.199-1.021,0.61-1.446,1.489-1.446c0.426,0,0.752,0.17,0.738,0.241l-0.34,1.602h1.163c0.481,0,0.752,0.213,0.752,0.525c0,0.198-0.086,0.638-0.299,0.836c-0.128,0.128-0.298,0.199-0.681,0.199h-1.29l-0.609,2.835c-0.184,0.836,0.099,1.191,0.652,1.191c0.355,0,0.667-0.185,0.851-0.354c0.057-0.042,0.326,0.185,0.326,0.61c0,0.297-0.113,0.553-0.341,0.779c-0.311,0.312-0.809,0.482-1.474,0.482C36.465,16.865,35.743,15.915,36.097,14.242z"/>
		<path d="M42.86,15.504c-0.269,0.893-0.709,1.234-1.488,1.234c-0.383,0-0.71-0.17-0.695-0.242l1.866-8.84c0.155-0.724,0.411-0.964,0.922-0.964h0.226c0.524,0,1.02,0.226,0.85,0.964l-0.647,3.085c0.511-0.709,1.248-1.148,2.197-1.148c1.489,0,2.722,1.063,2.722,2.963c0,2.184-1.431,4.296-3.615,4.296C44.178,16.85,43.285,16.354,42.86,15.504z M43.569,12.257l-0.213,0.993c-0.213,1.106,0.383,2.027,1.56,2.027c1.261,0,1.956-1.219,1.956-2.467c0-1.006-0.638-1.63-1.474-1.63C44.661,11.179,43.995,11.619,43.569,12.257z"/>
		<path d="M52.243,10.924c0.425-0.836,1.062-1.333,1.871-1.333c0.695,0,1.234,0.397,1.234,0.978c0,0.979-0.865,1.29-0.895,1.262c-0.198-0.213-0.481-0.411-0.964-0.411c-0.893,0-1.46,0.992-1.772,2.452l-0.397,1.914c-0.155,0.709-0.41,0.951-0.921,0.951h-0.213c-0.539,0-1.02-0.213-0.865-0.951l1.263-5.954c0.014-0.043,0.241-0.127,0.553-0.127C51.704,9.705,52.257,10.017,52.243,10.924z"/>
		<path d="M55.447,14.909l0.908-4.24c0.156-0.724,0.411-0.964,0.921-0.964h0.213c0.539,0,1.021,0.212,0.866,0.964l-0.922,4.296c-0.157,0.765-0.029,1.063,0.553,1.148c0.014,0.014-0.1,0.709-1.163,0.709C55.533,16.822,55.207,16.028,55.447,14.909z M56.902,7.839c0-0.681,0.468-1.163,1.163-1.163c0.709,0,1.105,0.355,1.105,0.865c0,0.666-0.468,1.163-1.162,1.163C57.298,8.704,56.902,8.349,56.902,7.839z"/>
		<path d="M59.786,14.242l0.609-2.92h-0.34c-0.454,0-0.722-0.199-0.722-0.525c0-0.199,0.084-0.624,0.283-0.837c0.142-0.127,0.297-0.198,0.694-0.198h0.411l0.086-0.397c0.198-1.021,0.608-1.446,1.488-1.446c0.426,0,0.752,0.17,0.737,0.241l-0.34,1.602h1.162c0.482,0,0.752,0.213,0.752,0.525c0,0.198-0.085,0.638-0.298,0.836c-0.128,0.128-0.298,0.199-0.681,0.199h-1.291l-0.609,2.835c-0.185,0.836,0.1,1.191,0.652,1.191c0.354,0,0.667-0.185,0.85-0.354c0.057-0.042,0.327,0.185,0.327,0.61c0,0.297-0.114,0.553-0.342,0.779c-0.31,0.312-0.807,0.482-1.473,0.482C60.155,16.865,59.432,15.915,59.786,14.242z"/>
		<path d="M64.593,13.901c0-2.509,1.928-4.31,4.352-4.31c1.759,0,2.737,0.822,2.737,2.027c0,1.418-0.907,2.269-3.985,2.269c-0.425,0-0.892-0.028-1.417-0.058v0.043c0,0.964,0.595,1.56,1.686,1.56c0.922,0,1.589-0.412,2.042-1.007c0.029-0.042,0.852,0.1,0.852,0.752c0,0.368-0.113,0.567-0.383,0.85c-0.525,0.511-1.348,0.822-2.538,0.822C65.67,16.85,64.593,15.603,64.593,13.901z M66.536,12.612c0.368,0.028,0.694,0.042,0.992,0.042c1.927,0,2.466-0.439,2.466-0.978c0-0.368-0.383-0.737-1.134-0.737C67.811,10.938,66.946,11.661,66.536,12.612z"/>
	</g>
</svg>