<svg width="24px" height="24px" viewBox="0 0 24 24" class="svg-googleplus">
	<g class="is-color1">
		<path d="M8,11.001v2.593h3.72c-0.308,1.581-1.696,2.725-3.72,2.725c-2.26,0-4.091-1.909-4.091-4.169S5.74,7.982,8,7.982c1.018,0,1.929,0.351,2.648,1.035l1.969-1.969C11.421,5.935,9.86,5.251,8,5.251c-3.809,0-6.9,3.09-6.9,6.9s3.09,6.9,6.9,6.9c3.985,0,6.606-2.8,6.606-6.742c0-0.451-0.043-0.888-0.109-1.308H8z"/>
		<polygon points="23,11 21,11 21,9 19,9 19,11 17,11 17,13 19,13 19,15 21,15 21,13 23,13 "/>
	</g>
</svg>
