<svg width="24px" height="24px" viewBox="0 0 24 24" class="svg-twitter is-square">
	<path class="is-color1" d="M24,5.006c-0.883,0.392-1.832,0.656-2.828,0.775c1.017-0.609,1.797-1.574,2.165-2.724c-0.951,0.564-2.005,0.974-3.127,1.195c-0.898-0.957-2.178-1.555-3.594-1.555c-2.719,0-4.924,2.205-4.924,4.924c0,0.386,0.044,0.762,0.127,1.122C7.727,8.538,4.099,6.577,1.671,3.598C1.247,4.326,1.004,5.171,1.004,6.074c0,1.708,0.869,3.215,2.19,4.098c-0.807-0.026-1.566-0.247-2.23-0.616c0,0.021,0,0.041,0,0.062c0,2.386,1.697,4.376,3.95,4.828c-0.413,0.112-0.848,0.173-1.297,0.173c-0.317,0-0.626-0.031-0.926-0.088c0.627,1.956,2.445,3.38,4.6,3.42c-1.685,1.321-3.808,2.108-6.115,2.108c-0.397,0-0.789-0.023-1.175-0.069c2.179,1.397,4.767,2.212,7.548,2.212c9.057,0,14.009-7.503,14.009-14.01c0-0.213-0.005-0.426-0.014-0.637C22.505,6.861,23.34,5.993,24,5.006z"/>
</svg>
