<svg width="32px" height="26px" viewBox="0 0 32 26" class="svg-twitter">
	<path class="is-main" d="M32,3.1c-1.2,0.5-2.4,0.9-3.8,1c1.4-0.8,2.4-2.1,2.9-3.6c-1.3,0.8-2.7,1.3-4.2,1.6C25.7,0.8,24,0,22.2,0c-3.6,0-6.6,2.9-6.6,6.6c0,0.5,0.1,1,0.2,1.5C10.3,7.8,5.5,5.2,2.2,1.2c-0.6,1-0.9,2.1-0.9,3.3c0,2.3,1,4.3,2.8,5.5C3,9.9,2,9.6,1,9.1c0,0,0,0.1,0,0.1c0,3.2,2.4,5.8,5.4,6.4c-0.6,0.1-1.1,0.2-1.7,0.2c-0.4,0-0.8,0-1.2-0.1c0.8,2.6,3.3,4.5,6.1,4.6c-2.2,1.8-5.1,2.8-8.1,2.8c-0.5,0-1,0-1.6-0.1C2.9,24.9,6.4,26,10.1,26c12.1,0,18.7-10,18.7-18.7c0-0.3,0-0.6,0-0.9C30,5.6,31.1,4.4,32,3.1z"/>
</svg>
