<svg width="95px" height="24px" viewBox="0 0 95 24" class="svg-linkedin is-logo">
	<g class="is-black">
		<polygon points="0,3.549 3.701,3.549 3.701,17.034 10.556,17.034 10.556,20.451 0,20.451 "/>
		<path d="M12.191,8.992h3.558v11.453h-3.558V8.992z M13.971,3.299c1.139,0,2.064,0.925,2.064,2.064c0,1.139-0.925,2.062-2.064,2.062c-1.138,0-2.063-0.922-2.063-2.062C11.908,4.224,12.832,3.299,13.971,3.299"/>
		<polygon points="30.625,3.549 34.18,3.549 34.18,13.65 38.211,8.987 42.572,8.987 37.906,14.29 42.474,20.451 38.003,20.451 34.227,14.788 34.18,14.788 34.18,20.451 30.625,20.451 "/>
		<path d="M17.718,8.995h3.416v1.564h0.048c0.474-0.9,1.636-1.85,3.368-1.85c3.606,0,4.27,2.372,4.27,5.456v6.28h-3.558v-5.568c0-1.328-0.024-3.035-1.851-3.035c-1.85,0-2.134,1.446-2.134,2.94v5.663h-3.558V8.995z"/>
		<path d="M50.061,13.388c0.022-1.187-0.902-2.183-2.184-2.183c-1.564,0-2.418,1.068-2.513,2.183H50.061z M53.074,18.462c-1.141,1.448-3.013,2.279-4.863,2.279c-3.558,0-6.405-2.372-6.405-6.05c0-3.675,2.847-6.048,6.405-6.048c3.322,0,5.408,2.373,5.408,6.048v1.115h-8.254c0.283,1.353,1.305,2.23,2.68,2.23c1.164,0,1.945-0.592,2.538-1.399L53.074,18.462z"/>
		<path d="M61.031,11.762c-1.778,0-2.847,1.187-2.847,2.917c0,1.733,1.069,2.919,2.847,2.919c1.781,0,2.847-1.186,2.847-2.919C63.878,12.949,62.812,11.762,61.031,11.762 M67.154,20.444h-3.275v-1.52h-0.046c-0.548,0.831-1.922,1.803-3.535,1.803c-3.417,0-5.671-2.466-5.671-5.952c0-3.204,1.993-6.144,5.267-6.144c1.472,0,2.846,0.402,3.654,1.517h0.046V3.549h3.561V20.444z"/>
	</g>
	<path class="is-color1" d="M93.224,0H72.77C71.794,0,71,0.775,71,1.73v20.538C71,23.224,71.794,24,72.77,24h20.454c0.979,0,1.775-0.776,1.775-1.732V1.73C94.999,0.775,94.203,0,93.224,0z"/>
	<g class="is-white">
		<rect x="74.557" y="8.997" width="3.563" height="11.453"/>
		<path d="M76.339,3.304c1.139,0,2.063,0.925,2.063,2.064c0,1.14-0.924,2.064-2.063,2.064c-1.143,0-2.065-0.925-2.065-2.064C74.273,4.229,75.195,3.304,76.339,3.304"/>
		<path d="M80.352,8.997h3.412v1.566h0.049c0.475-0.9,1.637-1.85,3.368-1.85c3.604,0,4.27,2.371,4.27,5.456v6.281h-3.559v-5.57c0-1.328-0.023-3.037-1.85-3.037c-1.852,0-2.135,1.448-2.135,2.942v5.665h-3.555V8.997z"/>
	</g>
</svg>
