<svg width="24px" height="24px" viewBox="0 0 24 24" class="svg-linkedin is-square">
	<rect width="24" height="24" class="is-color1" ry="x" rx="2"/>
	<g class="is-white">
		<rect x="3.556" y="8.998" width="3.563" height="11.453"/>
		<path d="M5.339,3.304c1.139,0,2.063,0.925,2.063,2.064c0,1.14-0.924,2.064-2.063,2.064c-1.143,0-2.065-0.925-2.065-2.064C3.274,4.229,4.195,3.304,5.339,3.304"/>
		<path d="M9.352,8.998h3.412v1.566h0.049c0.475-0.9,1.636-1.85,3.368-1.85c3.604,0,4.27,2.372,4.27,5.456v6.281h-3.559v-5.57c0-1.328-0.023-3.037-1.85-3.037c-1.852,0-2.135,1.448-2.135,2.942v5.665H9.352V8.998z"/>
	</g>
</svg>
