<svg width="64px" height="24px" viewBox="0 0 64 24" class="svg-dag">
	<g class="is-black">
		<path d="M37.559,23.673l-1.814-4.671H25.704l-1.785,4.671h-4.182l7.71-19.621l-5.119-0.645V0.327h17.074v3.081L34.328,4.05l7.776,19.621h-4.545V23.673z M27.12,15.278h7.207l-3.571-10.03h-0.066L27.12,15.278z"/>
		<path d="M19.752,12c0,7.426-5.227,11.673-11.716,11.673H0V0.327h8.037C14.525,0.327,19.752,4.574,19.752,12z M4.224,4.05v15.897h3.813c4.05,0,7.492-2.473,7.492-7.95c0-5.193-3.397-7.95-7.492-7.95H4.224V4.05z"/>
		<path d="M52.506,11.031h10.694v8.298C61.153,22.246,57.754,24,53.638,24c-7.013,0-12-4.637-12-12c0-7.36,4.858-12,11.781-12c4.334,0,8.037,2.144,9.78,5.935l-3.855,1.591c-1.045-2.307-3.136-3.8-5.925-3.8c-4.943,0-7.558,3.571-7.558,8.276c0,4.703,2.744,8.266,7.776,8.266c2.199,0,4.158-0.74,5.356-2.004V14.76h-6.488V11.031z"/>
	</g>
</svg>
