<svg width="24px" height="24px" viewBox="0 0 24 24" class="svg-dag">
	<g class="is-black">
		<path d="M14.263,16.99l-0.689-1.774H9.761L9.083,16.99H7.495l2.928-7.451L8.479,9.294v-1.17h6.484v1.17l-1.927,0.244l2.953,7.451H14.263z M10.299,13.802h2.737L11.68,9.993h-0.025L10.299,13.802z"/>
		<path d="M7.501,12.557c0,2.82-1.985,4.433-4.449,4.433H0V8.124h3.052C5.516,8.124,7.501,9.737,7.501,12.557z M1.604,9.538v6.037h1.448c1.538,0,2.845-0.939,2.845-3.019c0-1.972-1.29-3.019-2.845-3.019H1.604z"/>
		<path d="M19.939,12.189H24v3.151c-0.777,1.108-2.068,1.774-3.631,1.774c-2.663,0-4.557-1.761-4.557-4.557C15.812,9.762,17.657,8,20.286,8c1.646,0,3.052,0.814,3.714,2.254l-1.464,0.604c-0.397-0.876-1.191-1.443-2.25-1.443c-1.877,0-2.87,1.356-2.87,3.143c0,1.786,1.042,3.139,2.953,3.139c0.835,0,1.579-0.281,2.034-0.761v-1.331h-2.464V12.189z"/>
	</g>
</svg>
