<?xml version="1.0" encoding="UTF-8" standalone="no"?>
<svg width="24px" height="24px" viewBox="0 0 24 24" version="1.1" xmlns="http://www.w3.org/2000/svg" xmlns:xlink="http://www.w3.org/1999/xlink">
    <!-- Generator: Sketch 3.6.1 (26313) - http://www.bohemiancoding.com/sketch -->
    <title>googleplus-square</title>
    <desc>Created with Sketch.</desc>
    <defs></defs>
    <g id="Page-1" stroke="none" stroke-width="1" fill="none" fill-rule="evenodd">
        <g id="logos" transform="translate(-100.000000, -144.000000)" fill="#DD4B39">
            <g id="googleplus-square" transform="translate(101.000000, 149.000000)">
                <path d="M6.9,5.75 L6.9,8.343 L10.62,8.343 C10.312,9.924 8.924,11.068 6.9,11.068 C4.64,11.068 2.809,9.159 2.809,6.899 C2.809,4.639 4.64,2.731 6.9,2.731 C7.918,2.731 8.829,3.082 9.548,3.766 L11.517,1.797 C10.321,0.684 8.76,0 6.9,0 C3.091,0 0,3.09 0,6.9 C0,10.71 3.09,13.8 6.9,13.8 C10.885,13.8 13.506,11 13.506,7.058 C13.506,6.607 13.463,6.17 13.397,5.75 L6.9,5.75 Z" id="Fill-1"></path>
                <path d="M21.9,5.749 L19.9,5.749 L19.9,3.749 L17.9,3.749 L17.9,5.749 L15.9,5.749 L15.9,7.749 L17.9,7.749 L17.9,9.749 L19.9,9.749 L19.9,7.749 L21.9,7.749 L21.9,5.749 Z" id="Fill-3"></path>
            </g>
        </g>
    </g>
</svg>