<svg width="80px" height="24px" viewBox="0 0 80 24" class="svg-aboutme">
	<g class="is-color1">
		<path d="M6.681,18.752V17.66C5.939,18.526,4.764,19,3.444,19C1.835,19,0,17.886,0,15.701c0-2.309,1.815-3.258,3.444-3.258c1.361,0,2.495,0.433,3.237,1.279v-1.485c0-1.154-0.969-1.855-2.331-1.855c-1.113,0-2.103,0.412-2.949,1.279l-0.908-1.505C1.65,9.041,3.093,8.546,4.681,8.546c2.227,0,4.166,0.928,4.166,3.587v6.618H6.681z M6.681,16.484v-1.525c-0.515-0.681-1.444-1.031-2.372-1.031c-1.217,0-2.145,0.721-2.145,1.794c0,1.093,0.928,1.794,2.145,1.794C5.238,17.516,6.166,17.165,6.681,16.484z"/>
		<path d="M10.252,18.752V5h2.165v5.175c0.804-1.072,1.959-1.629,3.196-1.629c2.577,0,4.434,2,4.434,5.216c0,3.299-1.877,5.237-4.434,5.237c-1.279,0-2.433-0.619-3.196-1.608v1.36H10.252z M14.995,17.082c1.711,0,2.804-1.382,2.804-3.32c0-1.917-1.093-3.299-2.804-3.299c-1.031,0-2.083,0.598-2.578,1.34v3.959C12.912,16.505,13.964,17.082,14.995,17.082z"/>
		<path d="M21.236,13.763c0-2.866,1.938-5.216,5.114-5.216c3.175,0,5.114,2.35,5.114,5.216c0,2.845-1.939,5.237-5.114,5.237C23.174,19,21.236,16.608,21.236,13.763z M29.216,13.763c0-1.753-1.01-3.299-2.866-3.299c-1.835,0-2.866,1.546-2.866,3.299c0,1.773,1.031,3.32,2.866,3.32C28.206,17.082,29.216,15.536,29.216,13.763z"/>
		<path d="M39.394,18.752v-1.319C38.693,18.216,37.456,19,35.889,19c-2.145,0-3.217-1.134-3.217-3.155V8.794h2.165v6.248c0,1.546,0.784,2.041,2.021,2.041c1.093,0,2.041-0.639,2.536-1.299V8.794h2.165v9.959H39.394z"/>
		<path d="M44.618,16.423V10.67h-1.65V8.794h1.65V6.072h2.165v2.722h2.021v1.877h-2.021v5.216c0,0.68,0.33,1.196,0.949,1.196c0.412,0,0.783-0.186,0.948-0.371l0.516,1.65C48.804,18.711,48.165,19,47.175,19C45.484,19,44.618,18.092,44.618,16.423z"/>
		<path d="M50.233,17.516c0-0.763,0.66-1.422,1.443-1.422c0.784,0,1.444,0.659,1.444,1.422c0,0.783-0.66,1.464-1.444,1.464C50.893,18.979,50.233,18.298,50.233,17.516z"/>
		<path d="M66.444,18.752v-6.495c0-1.072-0.474-1.794-1.65-1.794c-0.969,0-1.877,0.66-2.31,1.32v6.969h-2.165v-6.495c0-1.072-0.454-1.794-1.629-1.794c-0.969,0-1.856,0.68-2.31,1.32v6.969h-2.165V8.794h2.165v1.34c0.434-0.598,1.733-1.588,3.259-1.588c1.484,0,2.392,0.742,2.722,1.814c0.557-0.887,1.877-1.814,3.381-1.814c1.815,0,2.867,0.99,2.867,3.01v7.196H66.444z"/>
		<path d="M69.817,13.763c0-2.887,2.104-5.216,5.052-5.216c2.99,0,4.888,2.268,4.888,5.402v0.536h-7.672c0.165,1.485,1.279,2.742,3.155,2.742c0.99,0,2.124-0.392,2.846-1.114l0.989,1.423C78.066,18.485,76.601,19,75.035,19C72.024,19,69.817,16.917,69.817,13.763z M74.849,10.32c-1.835,0-2.702,1.423-2.784,2.618h5.609C77.612,11.763,76.808,10.32,74.849,10.32z"/>
	</g>
</svg>
