<svg width="24px" height="24px" viewBox="0 0 24 24" class="svg-aboutme">
	<path class="is-color1" d="M24,23.251C24,23.663,23.663,24,23.251,24H0.749C0.337,24,0,23.663,0,23.251V0.749C0,0.337,0.337,0,0.749,0h22.503C23.663,0,24,0.337,24,0.749V23.251z"/>
	<g class="is-white">
		<path d="M11.341,14.607c0,0,0-2.789,0-3.502c0-0.6-0.266-0.945-0.823-0.945c-0.5,0-0.834,0.356-1.057,0.612c0,1.334,0,3.835,0,3.835H8.016c0,0,0-2.789,0-3.502c0-0.6-0.256-0.945-0.812-0.945c-0.5,0-0.846,0.356-1.057,0.612v3.835H4.701V9.018h1.446v0.709c0.245-0.289,0.801-0.779,1.668-0.779c0.768,0,1.29,0.323,1.524,0.979c0.322-0.467,0.922-0.979,1.791-0.979c1.045,0,1.657,0.623,1.657,1.824c0,1.334,0,3.835,0,3.835H11.341z"/>
		<path d="M15.334,12.251c0.145,0.712,0.734,1.212,1.557,1.212c0.445,0,1.09-0.166,1.469-0.556l0.722,0.835c-0.655,0.69-1.635,0.878-2.302,0.878c-1.624,0-2.892-1.167-2.892-2.836c0-1.557,1.167-2.836,2.814-2.836c1.59,0,2.769,1.223,2.769,2.836v0.467H15.334z M16.725,10.026c-0.846,0-1.313,0.623-1.412,1.302h2.835C18.071,10.683,17.615,10.026,16.725,10.026z"/>
	</g>
</svg>
