<svg width="120" height="120" viewBox="0 0 120 120" class="svg-github is-square is-large"><g class="is-black"><path d="M60 0C26.867 0 0 26.862 0 60c0 26.51 17.192 49 41.032 56.934 2.998.555 4.1-1.302 4.1-2.887 0-1.43-.055-6.157-.08-11.17-16.693 3.63-20.215-7.08-20.215-7.08-2.73-6.935-6.662-8.78-6.662-8.78-5.444-3.723.41-3.646.41-3.646 6.025.424 9.197 6.185 9.197 6.185 5.35 9.172 14.036 6.52 17.46 4.987.54-3.877 2.093-6.525 3.81-8.023C35.723 85 21.713 79.856 21.713 56.866c0-6.55 2.344-11.903 6.183-16.105-.623-1.512-2.677-7.614.58-15.88 0 0 5.04-1.61 16.505 6.152 4.786-1.33 9.92-1.996 15.018-2.02 5.1.023 10.236.69 15.03 2.02 11.453-7.763 16.484-6.15 16.484-6.15 3.266 8.264 1.212 14.366.59 15.878 3.846 4.202 6.174 9.554 6.174 16.105 0 23.045-14.036 28.12-27.397 29.605 2.153 1.862 4.07 5.513 4.07 11.11 0 8.03-.07 14.49-.07 16.467 0 1.596 1.08 3.467 4.122 2.878C102.83 108.983 120 86.5 120 60c0-33.138-26.864-60-60-60z"/><path d="M22.725 86.147c-.132.3-.602.388-1.028.183-.436-.196-.68-.603-.54-.9.13-.308.6-.393 1.034-.188.437.195.686.606.535.905zm-.738-.548M25.156 88.858c-.286.265-.846.142-1.225-.278-.392-.418-.465-.978-.175-1.247.295-.265.837-.14 1.23.278.393.424.47.98.17 1.248zm-.573-.615M27.52 92.313c-.367.256-.968.016-1.34-.517-.368-.534-.368-1.174.01-1.43.37-.256.963-.025 1.34.504.367.54.367 1.182-.01 1.443zm0 0M30.762 95.652c-.33.363-1.03.265-1.542-.23-.525-.483-.67-1.17-.34-1.533.333-.364 1.037-.262 1.553.23.52.482.68 1.172.33 1.532zm0 0M35.233 97.59c-.146.47-.82.683-1.5.483-.678-.206-1.122-.756-.985-1.23.14-.474.82-.696 1.503-.482.68.206 1.124.752.983 1.23zm0 0M40.144 97.95c.016.494-.56.904-1.273.913-.716.016-1.297-.384-1.305-.87 0-.5.564-.906 1.28-.92.714-.013 1.3.385 1.3.876zm0 0M44.713 97.172c.085.482-.41.978-1.12 1.11-.696.128-1.34-.17-1.43-.65-.085-.494.42-.99 1.115-1.118.71-.123 1.345.167 1.435.658zm0 0"/></g></svg>